# Raw stock 2x3x5 inch block, in meters. Exported from raw_stock_2x3x5.glb.
v 0.0377825014 0.063500002 0.0250824988
v 0.0377825014 0.063500002 0.0250824988
v 0.0377825014 0.063500002 0.0250824988
v 0.0377825014 0.063500002 0.0250824988
v 0.0377825014 0.063182503 0.0253999997
v 0.0377825014 0.063182503 0.0253999997
v 0.0377825014 0.063182503 0.0253999997
v 0.0377825014 0.063182503 0.0253999997
v 0.0381000005 0.063182503 0.0250824988
v 0.0381000005 0.063182503 0.0250824988
v 0.0381000005 0.063182503 0.0250824988
v 0.0381000005 0.063182503 0.0250824988
v 0.0377825014 0.063182503 -0.0253999997
v 0.0377825014 0.063182503 -0.0253999997
v 0.0377825014 0.063182503 -0.0253999997
v 0.0377825014 0.063182503 -0.0253999997
v 0.0377825014 0.063500002 -0.0250824988
v 0.0377825014 0.063500002 -0.0250824988
v 0.0377825014 0.063500002 -0.0250824988
v 0.0377825014 0.063500002 -0.0250824988
v 0.0381000005 0.063182503 -0.0250824988
v 0.0381000005 0.063182503 -0.0250824988
v 0.0381000005 0.063182503 -0.0250824988
v 0.0381000005 0.063182503 -0.0250824988
v 0.0381000005 -0.063182503 0.0250824988
v 0.0381000005 -0.063182503 0.0250824988
v 0.0381000005 -0.063182503 0.0250824988
v 0.0381000005 -0.063182503 0.0250824988
v 0.0377825014 -0.063182503 0.0253999997
v 0.0377825014 -0.063182503 0.0253999997
v 0.0377825014 -0.063182503 0.0253999997
v 0.0377825014 -0.063182503 0.0253999997
v 0.0377825014 -0.063500002 0.0250824988
v 0.0377825014 -0.063500002 0.0250824988
v 0.0377825014 -0.063500002 0.0250824988
v 0.0377825014 -0.063500002 0.0250824988
v 0.0381000005 -0.063182503 -0.0250824988
v 0.0381000005 -0.063182503 -0.0250824988
v 0.0381000005 -0.063182503 -0.0250824988
v 0.0381000005 -0.063182503 -0.0250824988
v 0.0377825014 -0.063500002 -0.0250824988
v 0.0377825014 -0.063500002 -0.0250824988
v 0.0377825014 -0.063500002 -0.0250824988
v 0.0377825014 -0.063500002 -0.0250824988
v 0.0377825014 -0.063182503 -0.0253999997
v 0.0377825014 -0.063182503 -0.0253999997
v 0.0377825014 -0.063182503 -0.0253999997
v 0.0377825014 -0.063182503 -0.0253999997
v -0.0377825014 0.063500002 0.0250824988
v -0.0377825014 0.063500002 0.0250824988
v -0.0377825014 0.063500002 0.0250824988
v -0.0377825014 0.063500002 0.0250824988
v -0.0381000005 0.063182503 0.0250824988
v -0.0381000005 0.063182503 0.0250824988
v -0.0381000005 0.063182503 0.0250824988
v -0.0381000005 0.063182503 0.0250824988
v -0.0377825014 0.063182503 0.0253999997
v -0.0377825014 0.063182503 0.0253999997
v -0.0377825014 0.063182503 0.0253999997
v -0.0377825014 0.063182503 0.0253999997
v -0.0381000005 0.063182503 -0.0250824988
v -0.0381000005 0.063182503 -0.0250824988
v -0.0381000005 0.063182503 -0.0250824988
v -0.0381000005 0.063182503 -0.0250824988
v -0.0377825014 0.063500002 -0.0250824988
v -0.0377825014 0.063500002 -0.0250824988
v -0.0377825014 0.063500002 -0.0250824988
v -0.0377825014 0.063500002 -0.0250824988
v -0.0377825014 0.063182503 -0.0253999997
v -0.0377825014 0.063182503 -0.0253999997
v -0.0377825014 0.063182503 -0.0253999997
v -0.0377825014 0.063182503 -0.0253999997
v -0.0381000005 -0.063182503 0.0250824988
v -0.0381000005 -0.063182503 0.0250824988
v -0.0381000005 -0.063182503 0.0250824988
v -0.0381000005 -0.063182503 0.0250824988
v -0.0377825014 -0.063500002 0.0250824988
v -0.0377825014 -0.063500002 0.0250824988
v -0.0377825014 -0.063500002 0.0250824988
v -0.0377825014 -0.063500002 0.0250824988
v -0.0377825014 -0.063182503 0.0253999997
v -0.0377825014 -0.063182503 0.0253999997
v -0.0377825014 -0.063182503 0.0253999997
v -0.0377825014 -0.063182503 0.0253999997
v -0.0377825014 -0.063182503 -0.0253999997
v -0.0377825014 -0.063182503 -0.0253999997
v -0.0377825014 -0.063182503 -0.0253999997
v -0.0377825014 -0.063182503 -0.0253999997
v -0.0377825014 -0.063500002 -0.0250824988
v -0.0377825014 -0.063500002 -0.0250824988
v -0.0377825014 -0.063500002 -0.0250824988
v -0.0377825014 -0.063500002 -0.0250824988
v -0.0381000005 -0.063182503 -0.0250824988
v -0.0381000005 -0.063182503 -0.0250824988
v -0.0381000005 -0.063182503 -0.0250824988
v -0.0381000005 -0.063182503 -0.0250824988
f 3 7 9
f 15 19 21
f 25 31 35
f 37 43 47
f 51 53 59
f 61 67 71
f 73 79 83
f 87 91 93
f 72 88 94
f 72 94 62
f 14 70 65
f 14 65 17
f 11 23 20
f 11 20 4
f 92 80 75
f 92 75 95
f 36 44 39
f 36 39 27
f 52 68 63
f 52 63 55
f 30 82 77
f 30 77 33
f 8 32 26
f 8 26 10
f 86 46 41
f 86 41 89
f 84 60 54
f 84 54 74
f 58 6 1
f 58 1 49
f 48 16 22
f 48 22 38
f 66 50 2
f 66 2 18
f 24 12 28
f 24 28 40
f 5 57 81
f 5 81 29
f 69 13 45
f 69 45 85
f 42 34 78
f 42 78 90
f 96 76 56
f 96 56 64
